<?xml version="1.0" encoding="utf-8"?>
<!-- Generator: Adobe Illustrator 13.0.2, SVG Export Plug-In . SVG Version: 6.00 Build 14948)  -->
<!DOCTYPE svg PUBLIC "-//W3C//DTD SVG 1.1//EN" "http://www.w3.org/Graphics/SVG/1.1/DTD/svg11.dtd">
<svg version="1.1" id="Layer_1" xmlns="http://www.w3.org/2000/svg" xmlns:xlink="http://www.w3.org/1999/xlink" x="0px" y="0px"
	 width="314.403px" height="61.165px" viewBox="0 0 314.403 61.165" enable-background="new 0 0 314.403 61.165"
	 xml:space="preserve">
<g>
	<path fill="#EF6B00" d="M10.938,44.898c-3.085,0-8.021-0.617-10.938-1.402l1.178-6.45c2.244,0.617,6.17,1.233,9.199,1.233
		c2.749,0,3.309-0.673,3.309-2.019c0-1.459-0.112-1.684-4.15-2.637c-7.965-1.963-9.031-3.927-9.031-9.199
		c0-5.89,2.917-8.47,10.994-8.47c2.749,0,6.563,0.337,9.143,0.897l-0.729,6.395c-2.805-0.617-5.666-0.953-7.741-0.953
		c-2.805,0-3.702,0.393-3.702,1.682c0,1.347,0.28,1.627,3.478,2.356c8.975,2.02,9.704,4.095,9.704,9.647
		C21.651,41.253,19.015,44.898,10.938,44.898z"/>
	<path fill="#EF6B00" d="M34.16,33.231v0.225c0,3.926,1.458,4.823,4.88,4.823c3.253,0,6.451-0.616,9.479-1.458l0.617,6.562
		c-2.917,0.785-7.067,1.515-11.274,1.515c-9.479,0-12.284-5.104-12.284-14.304c0-8.077,1.683-14.64,12.452-14.64
		c8.807,0,11.387,4.823,11.387,13.237v4.039H34.16z M41.283,27.173c0-3.253-0.841-4.711-3.421-4.711
		c-3.141,0-3.702,2.075-3.702,4.768v0.561h7.124V27.173z"/>
	<path fill="#EF6B00" d="M70.507,44.281v-17.78c0-1.795-0.729-2.525-2.019-2.525s-3.253,0.898-4.88,1.908v18.397h-8.582V16.46h6.955
		l1.01,2.748c2.973-1.795,6.619-3.141,9.704-3.141c2.581,0,4.375,1.29,5.385,3.365c2.861-1.795,6.619-3.365,10.153-3.365
		c4.319,0,6.338,3.533,6.338,8.525v19.688h-8.582v-17.78c0-1.795-0.673-2.525-1.963-2.525s-3.365,0.898-4.936,1.908v18.397H70.507z"
		/>
	<path fill="#EF6B00" d="M116.055,44.281l-0.673-2.075c-3.085,1.851-5.945,2.637-8.301,2.637c-4.6,0-7.292-3.086-7.292-8.189
		c0-7.349,3.366-8.751,11.779-8.751c0.729,0,1.963,0,3.253,0.056v-1.514c0-2.355-0.281-3.871-4.375-3.871
		c-3.029,0-6.226,0.617-8.526,1.291l-0.505-6.507c2.468-0.729,6.787-1.402,10.77-1.402c8.638,0,11.219,2.636,11.219,10.938v17.388
		H116.055z M114.821,33.456c-0.842-0.057-1.346-0.057-1.571-0.057c-4.039,0-5.216,0.168-5.216,2.692
		c0,1.627,0.561,2.468,2.188,2.468c1.739,0,3.253-0.617,4.6-1.458V33.456z"/>
	<path fill="#EF6B00" d="M145.447,44.281V26.612c0-1.906-0.673-2.637-2.075-2.637c-1.346,0-3.534,0.898-5.216,1.852v18.454h-8.582
		V16.46h6.955l0.954,2.523c2.973-1.682,6.731-2.973,9.984-2.973c5.048,0,6.562,3.311,6.562,8.189v20.081H145.447z"/>
	<path fill="#EF6B00" d="M169.51,44.843c-5.665,0-8.021-2.525-8.021-7.797V23.359h-3.59V16.46h3.59V9.448l8.582-0.896v7.908h6.676
		l-0.225,6.899h-6.451v12.06c0,1.963,0.449,2.523,2.02,2.523c1.122,0,2.58-0.279,4.15-0.896l0.506,6.898
		C174.559,44.506,171.754,44.843,169.51,44.843z"/>
	<path fill="#EF6B00" d="M186.114,4.513c4.264,0,4.488,1.121,4.488,4.768s-0.225,4.768-4.488,4.768
		c-4.207,0-4.431-1.121-4.431-4.768S181.907,4.513,186.114,4.513z M181.851,44.281V16.46h8.582v27.821H181.851z"/>
	<path fill="#EF6B00" d="M209.112,37.999c1.852,0,4.095-0.393,6.395-0.953l0.842,6.955c-2.412,0.449-5.329,0.842-8.078,0.842
		c-10.208,0-12.396-5.161-12.396-14.473c0-9.647,2.3-14.471,12.62-14.471c2.3,0,4.88,0.225,7.685,0.729l-0.729,6.955
		c-1.851-0.504-4.543-0.841-6.45-0.841c-3.87,0-4.544,1.795-4.544,7.628C204.456,35.587,204.737,37.999,209.112,37.999z"/>
	<path fill="#EF6B00" d="M219.825,30.37c0-8.189,2.412-14.471,12.901-14.471s12.845,6.281,12.845,14.471
		c0,8.246-2.355,14.473-12.845,14.473S219.825,38.56,219.825,30.37z M236.989,30.37c0-4.431-0.057-7.628-4.263-7.628
		c-4.15,0-4.319,3.253-4.319,7.628c0,4.432,0.169,7.629,4.319,7.629C236.932,37.999,236.989,34.802,236.989,30.37z"/>
</g>
<g>
	<path fill="#D7D7D7" d="M264.394,43.67l5.635-5.635l-6.591-6.631c0,0-1.168-0.936,0.088-2.163c1.258-1.227,6.597-6.584,6.597-6.584
		l-5.768-5.5l-9.896,9.878c0,0-3.732,2.953-0.021,6.626C258.148,37.336,264.394,43.67,264.394,43.67z"/>
	<path fill="#D7D7D7" d="M270.176,11.597l5.635,5.635l6.632-6.587c0,0,0.935-1.17,2.162,0.088c1.226,1.256,6.584,6.593,6.584,6.593
		l5.5-5.767l-9.879-9.896c0,0-2.954-3.73-6.625-0.019C276.509,5.355,270.176,11.597,270.176,11.597z"/>
	<path fill="#D7D7D7" d="M302.804,16.936l-5.635,5.634l6.59,6.631c0,0,1.168,0.936-0.088,2.163
		c-1.258,1.226-6.596,6.584-6.596,6.584l5.767,5.499l9.897-9.878c0,0,3.729-2.952,0.019-6.625
		C309.047,23.271,302.804,16.936,302.804,16.936z"/>
	<path fill="#D7D7D7" d="M296.689,49.567l-5.636-5.635l-6.632,6.588c0,0-0.936,1.169-2.162-0.087
		c-1.227-1.257-6.583-6.595-6.583-6.595l-5.5,5.767l9.879,9.896c0,0,2.953,3.729,6.626,0.019
		C290.354,55.809,296.689,49.567,296.689,49.567z"/>
	<rect x="283.853" y="26.551" fill="#D7D7D7" width="20.689" height="7.586"/>
</g>
</svg>
